<svg width="32" height="32" viewBox="0 0 32 32" fill="none" xmlns="http://www.w3.org/2000/svg">
<path opacity="0.3" fill-rule="evenodd" clip-rule="evenodd" d="M0 3.6958H32V7.01226H0V3.6958ZM0 14.397H20.2857V17.7727H0V14.397ZM32 25.0869H0V28.4034H32V25.0869Z" fill="white"/>
<path fill-rule="evenodd" clip-rule="evenodd" d="M26.1014 4.97285L21.0506 0L17.4507 3.54443L11.9364 3.54443L8.33641 0L3.28564 4.97285L6.85704 8.48915V12.6187L3.28564 16.135L6.85704 19.6513V23.3086L3.28564 26.8249L8.33641 31.7977L11.8327 28.3554H17.349L21.0506 31.9999L26.1014 27.027L21.0506 22.0542L18.0508 25.0078H11.5416L9.71418 23.2086V19.7513L11.7747 17.7226H20.3999V14.375L11.5996 14.375L9.71418 12.5186V8.58918L11.238 7.0889L18.1491 7.0889L21.0506 9.9457L26.1014 4.97285Z" fill="white"/>
</svg>
